<svg width="66" height="282" viewBox="0 0 66 282" fill="none" xmlns="http://www.w3.org/2000/svg">
<path d="M3.125 268.469C2.97917 267.927 2.90625 267.365 2.90625 266.781C2.90625 266.198 3.07292 265.448 3.40625 264.531C3.55208 264.49 3.69792 264.469 3.84375 264.469C3.98958 264.469 4.13542 264.469 4.28125 264.469C5.48958 264.469 6.3125 264.875 6.75 265.687C7.3125 265.271 7.88542 265.062 8.46875 265.062C9.03125 265.062 9.45833 265.177 9.75 265.406C10.0208 265.656 10.1979 265.958 10.2812 266.312C9.38542 266.917 8.63542 267.792 8.03125 268.937C8.07292 270.042 8.41667 270.969 9.0625 271.719C9.35417 272.073 9.70833 272.354 10.125 272.562C10.5625 272.771 11.1042 272.875 11.75 272.875C12.4167 272.875 13.125 272.74 13.875 272.469C14.3333 272.302 14.8542 272.062 15.4375 271.75C16.0417 271.458 16.8854 270.979 17.9687 270.312C19.0521 269.667 20.1042 269.167 21.125 268.812C21.625 268.646 22.125 268.521 22.625 268.437C23.1458 268.375 23.6979 268.344 24.2812 268.344C24.8854 268.344 25.5208 268.448 26.1875 268.656C28.4792 269.385 30.0417 270.937 30.875 273.312C31.3958 271.729 32.3229 270.479 33.6562 269.562C34.2604 269.167 34.8958 268.865 35.5625 268.656C36.2292 268.448 37.0104 268.344 37.9062 268.344C38.8021 268.344 39.7083 268.5 40.625 268.812C41.1458 269 41.6875 269.229 42.25 269.5C42.8333 269.792 43.6875 270.271 44.8125 270.937C45.9375 271.625 46.9583 272.135 47.875 272.469C48.3333 272.635 48.7396 272.74 49.0937 272.781C49.4479 272.844 49.8437 272.875 50.2812 272.875C50.7396 272.875 51.1875 272.771 51.625 272.562C52.875 271.937 53.5729 270.729 53.7187 268.937C53.1146 267.792 52.3646 266.917 51.4687 266.312C51.6562 265.479 52.2604 265.062 53.2812 265.062C53.8646 265.062 54.4375 265.271 55 265.687C55.4375 264.875 56.2604 264.469 57.4687 264.469C57.6146 264.469 57.7604 264.469 57.9062 264.469C58.0521 264.469 58.1979 264.49 58.3437 264.531C58.6771 265.448 58.8437 266.281 58.8437 267.031C58.8437 267.448 58.7708 267.927 58.625 268.469C59.5417 269.115 60 269.833 60 270.625C60 271.437 59.8437 272.042 59.5312 272.437C58.6354 271.75 57.6667 271.365 56.625 271.281C56.0833 273.531 55.1562 275.25 53.8437 276.437C52.5521 277.646 51.0208 278.25 49.25 278.25C48.25 278.25 47 278.021 45.5 277.562C42.7292 276.729 40.2187 276.312 37.9687 276.312C34.5729 276.312 32.3229 277.854 31.2187 280.937C31.1146 281.187 31 281.312 30.875 281.312C30.75 281.312 30.6354 281.187 30.5312 280.937C29.9896 279.437 29.1667 278.292 28.0625 277.5C26.9792 276.708 25.4271 276.312 23.4062 276.312C21.4062 276.312 18.7604 276.812 15.4687 277.812C14.4896 278.104 13.5 278.25 12.5 278.25C10.6667 278.25 9.11458 277.635 7.84375 276.406C6.57292 275.198 5.66667 273.49 5.125 271.281C4.02083 271.365 3.05208 271.75 2.21875 272.437C1.90625 272.042 1.75 271.531 1.75 270.906C1.75 269.927 2.20833 269.115 3.125 268.469ZM54.0937 269.969L54 269.625L54.0937 269.969ZM7.65625 269.969L7.75 269.625L7.65625 269.969Z" fill="black"/>
<path d="M3.125 14.4062C2.20833 13.7604 1.75 12.9479 1.75 11.9687C1.75 11.3437 1.90625 10.8333 2.21875 10.4375C3.05208 11.125 4.02083 11.5104 5.125 11.5937C5.66667 9.38542 6.57292 7.66667 7.84375 6.4375C9.11458 5.22917 10.6667 4.625 12.5 4.625C13.5 4.625 14.4896 4.77083 15.4687 5.0625C18.7604 6.0625 21.4062 6.5625 23.4062 6.5625C25.4271 6.5625 26.9792 6.16667 28.0625 5.375C29.1667 4.58333 29.9896 3.4375 30.5312 1.9375C30.6354 1.6875 30.75 1.5625 30.875 1.5625C31 1.5625 31.1146 1.6875 31.2187 1.9375C32.3229 5.02083 34.5729 6.5625 37.9687 6.5625C40.2187 6.5625 42.7292 6.14583 45.5 5.3125C47 4.85417 48.25 4.625 49.25 4.625C51.0208 4.625 52.5521 5.21875 53.8437 6.40625C55.1562 7.61458 56.0833 9.34375 56.625 11.5938C57.6667 11.5104 58.6354 11.125 59.5312 10.4375C59.8437 10.8333 60 11.4271 60 12.2188C60 13.0313 59.5417 13.7604 58.625 14.4063C58.7708 14.9479 58.8437 15.4271 58.8437 15.8438C58.8437 16.5938 58.6771 17.4271 58.3437 18.3438C58.1979 18.3854 58.0521 18.4063 57.9062 18.4063C57.7604 18.4063 57.6146 18.4063 57.4687 18.4063C56.2604 18.4063 55.4375 18 55 17.1875C54.4375 17.6042 53.8646 17.8125 53.2812 17.8125C52.2604 17.8125 51.6562 17.3958 51.4687 16.5625C52.3646 15.9583 53.1146 15.0833 53.7187 13.9375C53.5729 12.1458 52.875 10.9375 51.625 10.3125C51.1875 10.1042 50.7396 10 50.2812 10C49.8437 10 49.4479 10.0208 49.0937 10.0625C48.7396 10.125 48.3333 10.2396 47.875 10.4063C46.9583 10.7396 45.9375 11.2396 44.8125 11.9063C43.6875 12.5938 42.8333 13.0729 42.25 13.3438C41.6875 13.6354 41.1458 13.875 40.625 14.0625C39.7083 14.375 38.8021 14.5313 37.9062 14.5313C37.0104 14.5313 36.2292 14.4271 35.5625 14.2188C34.8958 14.0104 34.2604 13.7083 33.6562 13.3125C32.3229 12.3958 31.3958 11.1458 30.875 9.5625C30.0417 11.9375 28.4792 13.4896 26.1875 14.2188C25.5208 14.4271 24.8854 14.5313 24.2812 14.5313C23.6979 14.5313 23.1458 14.4896 22.625 14.4063C22.125 14.3437 21.625 14.2292 21.125 14.0625C20.1042 13.7083 19.0521 13.1979 17.9687 12.5312C16.8854 11.8854 16.0417 11.4062 15.4375 11.0937C14.8542 10.8021 14.3333 10.5729 13.875 10.4062C13.125 10.1354 12.4167 10 11.75 10C11.1042 10 10.5625 10.1042 10.125 10.3125C9.70833 10.5208 9.35417 10.8021 9.0625 11.1562C8.41667 11.9062 8.07292 12.8333 8.03125 13.9375C8.63542 15.0833 9.38542 15.9583 10.2812 16.5625C10.1979 16.9167 10.0208 17.2083 9.75 17.4375C9.45833 17.6875 9.03125 17.8125 8.46875 17.8125C7.88542 17.8125 7.3125 17.6042 6.75 17.1875C6.3125 18 5.48958 18.4062 4.28125 18.4062C4.13542 18.4062 3.98958 18.4062 3.84375 18.4062C3.69792 18.4062 3.55208 18.3854 3.40625 18.3437C3.07292 17.4271 2.90625 16.6771 2.90625 16.0937C2.90625 15.5104 2.97917 14.9479 3.125 14.4062ZM54.0937 12.9063L54 13.25L54.0937 12.9063ZM7.65625 12.9062L7.75 13.25L7.65625 12.9062Z" fill="black"/>
<path d="M12.625 32.1875C12.2917 31.6042 12.125 30.625 12.125 29.25C12.125 27.875 12.7917 26.5 14.125 25.125C15.5 23.75 17.5208 23.0625 20.1875 23.0625H49.125C49.4583 23.6458 49.625 24.625 49.625 26C49.625 27.375 48.9375 28.75 47.5625 30.125C46.2292 31.5 44.2292 32.1875 41.5625 32.1875H12.625Z" fill="black"/>
</svg>
