<svg width="66" height="53" viewBox="0 0 66 53" fill="none" xmlns="http://www.w3.org/2000/svg">
<path d="M3.125 14.4062C2.20833 13.7604 1.75 12.9479 1.75 11.9687C1.75 11.3437 1.90625 10.8333 2.21875 10.4375C3.05208 11.125 4.02083 11.5104 5.125 11.5937C5.66667 9.38542 6.57292 7.66667 7.84375 6.4375C9.11458 5.22917 10.6667 4.625 12.5 4.625C13.5 4.625 14.4896 4.77083 15.4687 5.0625C18.7604 6.0625 21.4062 6.5625 23.4062 6.5625C25.4271 6.5625 26.9792 6.16667 28.0625 5.375C29.1667 4.58333 29.9896 3.4375 30.5312 1.9375C30.6354 1.6875 30.75 1.5625 30.875 1.5625C31 1.5625 31.1146 1.6875 31.2187 1.9375C32.3229 5.02083 34.5729 6.5625 37.9687 6.5625C40.2187 6.5625 42.7292 6.14583 45.5 5.3125C47 4.85417 48.25 4.625 49.25 4.625C51.0208 4.625 52.5521 5.21875 53.8437 6.40625C55.1562 7.61458 56.0833 9.34375 56.625 11.5938C57.6667 11.5104 58.6354 11.125 59.5312 10.4375C59.8437 10.8333 60 11.4271 60 12.2188C60 13.0313 59.5417 13.7604 58.625 14.4063C58.7708 14.9479 58.8437 15.4271 58.8437 15.8438C58.8437 16.5938 58.6771 17.4271 58.3437 18.3438C58.1979 18.3854 58.0521 18.4063 57.9062 18.4063C57.7604 18.4063 57.6146 18.4063 57.4687 18.4063C56.2604 18.4063 55.4375 18 55 17.1875C54.4375 17.6042 53.8646 17.8125 53.2812 17.8125C52.2604 17.8125 51.6562 17.3958 51.4687 16.5625C52.3646 15.9583 53.1146 15.0833 53.7187 13.9375C53.5729 12.1458 52.875 10.9375 51.625 10.3125C51.1875 10.1042 50.7396 10 50.2812 10C49.8437 10 49.4479 10.0208 49.0937 10.0625C48.7396 10.125 48.3333 10.2396 47.875 10.4063C46.9583 10.7396 45.9375 11.2396 44.8125 11.9063C43.6875 12.5938 42.8333 13.0729 42.25 13.3438C41.6875 13.6354 41.1458 13.875 40.625 14.0625C39.7083 14.375 38.8021 14.5313 37.9062 14.5313C37.0104 14.5313 36.2292 14.4271 35.5625 14.2188C34.8958 14.0104 34.2604 13.7083 33.6562 13.3125C32.3229 12.3958 31.3958 11.1458 30.875 9.5625C30.0417 11.9375 28.4792 13.4896 26.1875 14.2188C25.5208 14.4271 24.8854 14.5313 24.2812 14.5313C23.6979 14.5313 23.1458 14.4896 22.625 14.4063C22.125 14.3437 21.625 14.2292 21.125 14.0625C20.1042 13.7083 19.0521 13.1979 17.9687 12.5312C16.8854 11.8854 16.0417 11.4062 15.4375 11.0937C14.8542 10.8021 14.3333 10.5729 13.875 10.4062C13.125 10.1354 12.4167 10 11.75 10C11.1042 10 10.5625 10.1042 10.125 10.3125C9.70833 10.5208 9.35417 10.8021 9.0625 11.1562C8.41667 11.9062 8.07292 12.8333 8.03125 13.9375C8.63542 15.0833 9.38542 15.9583 10.2812 16.5625C10.1979 16.9167 10.0208 17.2083 9.75 17.4375C9.45833 17.6875 9.03125 17.8125 8.46875 17.8125C7.88542 17.8125 7.3125 17.6042 6.75 17.1875C6.3125 18 5.48958 18.4062 4.28125 18.4062C4.13542 18.4062 3.98958 18.4062 3.84375 18.4062C3.69792 18.4062 3.55208 18.3854 3.40625 18.3437C3.07292 17.4271 2.90625 16.6771 2.90625 16.0937C2.90625 15.5104 2.97917 14.9479 3.125 14.4062ZM54.0937 12.9063L54 13.25L54.0937 12.9063ZM7.65625 12.9062L7.75 13.25L7.65625 12.9062Z" fill="black"/>
<path d="M3.125 39.4687C2.97917 38.9271 2.90625 38.3646 2.90625 37.7812C2.90625 37.1979 3.07292 36.4479 3.40625 35.5312C3.55208 35.4896 3.69792 35.4687 3.84375 35.4687C3.98958 35.4687 4.13542 35.4687 4.28125 35.4687C5.48958 35.4687 6.3125 35.875 6.75 36.6875C7.3125 36.2708 7.88542 36.0625 8.46875 36.0625C9.03125 36.0625 9.45833 36.1771 9.75 36.4062C10.0208 36.6562 10.1979 36.9583 10.2812 37.3125C9.38542 37.9167 8.63542 38.7917 8.03125 39.9375C8.07292 41.0417 8.41667 41.9687 9.0625 42.7187C9.35417 43.0729 9.70833 43.3542 10.125 43.5625C10.5625 43.7708 11.1042 43.875 11.75 43.875C12.4167 43.875 13.125 43.7396 13.875 43.4687C14.3333 43.3021 14.8542 43.0625 15.4375 42.75C16.0417 42.4583 16.8854 41.9792 17.9687 41.3125C19.0521 40.6667 20.1042 40.1667 21.125 39.8125C21.625 39.6458 22.125 39.5208 22.625 39.4375C23.1458 39.375 23.6979 39.3437 24.2812 39.3437C24.8854 39.3437 25.5208 39.4479 26.1875 39.6562C28.4792 40.3854 30.0417 41.9375 30.875 44.3125C31.3958 42.7292 32.3229 41.4792 33.6562 40.5625C34.2604 40.1667 34.8958 39.8646 35.5625 39.6562C36.2292 39.4479 37.0104 39.3437 37.9062 39.3437C38.8021 39.3437 39.7083 39.5 40.625 39.8125C41.1458 40 41.6875 40.2292 42.25 40.5C42.8333 40.7917 43.6875 41.2708 44.8125 41.9375C45.9375 42.625 46.9583 43.1354 47.875 43.4687C48.3333 43.6354 48.7396 43.7396 49.0937 43.7812C49.4479 43.8437 49.8437 43.875 50.2812 43.875C50.7396 43.875 51.1875 43.7708 51.625 43.5625C52.875 42.9375 53.5729 41.7292 53.7187 39.9375C53.1146 38.7917 52.3646 37.9167 51.4687 37.3125C51.6562 36.4792 52.2604 36.0625 53.2812 36.0625C53.8646 36.0625 54.4375 36.2708 55 36.6875C55.4375 35.875 56.2604 35.4687 57.4687 35.4687C57.6146 35.4687 57.7604 35.4687 57.9062 35.4687C58.0521 35.4687 58.1979 35.4896 58.3437 35.5312C58.6771 36.4479 58.8437 37.2812 58.8437 38.0312C58.8437 38.4479 58.7708 38.9271 58.625 39.4687C59.5417 40.1146 60 40.8333 60 41.625C60 42.4375 59.8437 43.0417 59.5312 43.4375C58.6354 42.75 57.6667 42.3646 56.625 42.2812C56.0833 44.5312 55.1562 46.25 53.8437 47.4375C52.5521 48.6458 51.0208 49.25 49.25 49.25C48.25 49.25 47 49.0208 45.5 48.5625C42.7292 47.7292 40.2187 47.3125 37.9687 47.3125C34.5729 47.3125 32.3229 48.8542 31.2187 51.9375C31.1146 52.1875 31 52.3125 30.875 52.3125C30.75 52.3125 30.6354 52.1875 30.5312 51.9375C29.9896 50.4375 29.1667 49.2917 28.0625 48.5C26.9792 47.7083 25.4271 47.3125 23.4062 47.3125C21.4062 47.3125 18.7604 47.8125 15.4687 48.8125C14.4896 49.1042 13.5 49.25 12.5 49.25C10.6667 49.25 9.11458 48.6354 7.84375 47.4062C6.57292 46.1979 5.66667 44.4896 5.125 42.2812C4.02083 42.3646 3.05208 42.75 2.21875 43.4375C1.90625 43.0417 1.75 42.5312 1.75 41.9062C1.75 40.9271 2.20833 40.1146 3.125 39.4687ZM54.0937 40.9687L54 40.625L54.0937 40.9687ZM7.65625 40.9687L7.75 40.625L7.65625 40.9687Z" fill="black"/>
<path d="M12.625 32.1875C12.2917 31.6042 12.125 30.625 12.125 29.25C12.125 27.875 12.7917 26.5 14.125 25.125C15.5 23.75 17.5208 23.0625 20.1875 23.0625H49.125C49.4583 23.6458 49.625 24.625 49.625 26C49.625 27.375 48.9375 28.75 47.5625 30.125C46.2292 31.5 44.2292 32.1875 41.5625 32.1875H12.625Z" fill="black"/>
</svg>
