<svg width="369" height="80" viewBox="0 0 369 80" fill="none" xmlns="http://www.w3.org/2000/svg">
<path d="M64.6406 41.8125C64.6406 42.5156 65.2721 43.056 66.5352 43.4336C65.4674 43.8633 64.7253 44.2669 64.3086 44.6445C63.5143 45.3867 62.8893 46.3503 62.4336 47.5352L59.0352 57.3008C58.306 59.1497 57.7526 60.1914 57.375 60.4258C57.2578 60.5039 57.1211 60.543 56.9648 60.543C56.8086 60.543 56.6784 60.4974 56.5742 60.4062L49.9141 41.0508L43.8008 57.3008C43.0716 59.1237 42.5182 60.1654 42.1406 60.4258C42.0234 60.5039 41.8867 60.543 41.7305 60.543C41.5742 60.543 41.444 60.4974 41.3398 60.4062L35.0312 46.207C34.7188 45.4648 34.3867 44.9375 34.0352 44.625C33.4883 44.1562 32.7721 43.7591 31.8867 43.4336C33.0065 42.7956 33.5534 42.2031 33.5273 41.6562C33.5273 41.3047 33.3971 40.8164 33.1367 40.1914L32.5898 38.8633L29.9336 31.6953C29.2565 31.2266 28.6641 30.9922 28.1562 30.9922C27.6615 30.9922 27.2513 31.1029 26.9258 31.3242C26.7826 31.2201 26.7109 31.0247 26.7109 30.7383C26.7109 30.4518 26.7565 30.1914 26.8477 29.957C26.9388 29.7096 27.082 29.4948 27.2773 29.3125C27.694 28.9219 28.2995 28.7266 29.0938 28.7266C29.888 28.7266 30.5911 28.9544 31.2031 29.4102C31.8542 28.9544 32.6224 28.7266 33.5078 28.7266C34.4062 28.7266 35.1419 28.9479 35.7148 29.3906C36.4049 28.9479 37.0495 28.7266 37.6484 28.7266C38.2474 28.7266 38.7292 28.7721 39.0938 28.8633C39.4583 28.9414 39.7773 29.0651 40.0508 29.2344C40.6367 29.5729 40.9427 30.0417 40.9688 30.6406C40.9688 31.0052 40.8971 31.2331 40.7539 31.3242C40.4023 31.1029 40.0443 30.9922 39.6797 30.9922C38.8594 30.9922 38.2214 31.1484 37.7656 31.4609L44.1133 49.1953L48.4297 36.7539L46.6914 31.6758C46.0273 31.2201 45.4479 30.9922 44.9531 30.9922C44.4583 30.9922 44.0482 31.1029 43.7227 31.3242C43.5794 31.2201 43.5078 31.0247 43.5078 30.7383C43.5078 30.4518 43.5534 30.1914 43.6445 29.957C43.7357 29.7096 43.8789 29.4948 44.0742 29.3125C44.4909 28.9219 45.0964 28.7266 45.8906 28.7266C46.6849 28.7266 47.388 28.9544 48 29.4102C48.651 28.9544 49.4193 28.7266 50.3047 28.7266C51.2031 28.7266 51.9388 28.9479 52.5117 29.3906C53.2018 28.9479 53.8464 28.7266 54.4453 28.7266C55.0443 28.7266 55.526 28.7721 55.8906 28.8633C56.2552 28.9414 56.5742 29.0651 56.8477 29.2344C57.4336 29.5729 57.7396 30.0417 57.7656 30.6406C57.7656 31.0052 57.694 31.2331 57.5508 31.3242C57.1992 31.1029 56.8411 30.9922 56.4766 30.9922C55.6302 30.9922 54.9857 31.1549 54.543 31.4805L59.7578 47.8281L65.0312 31.5195C64.6146 31.1029 64.0156 30.8945 63.2344 30.8945C62.4531 30.8945 61.8737 31.0052 61.4961 31.2266C61.3659 31.0312 61.3008 30.7253 61.3008 30.3086C61.3008 29.8919 61.4766 29.5273 61.8281 29.2148C62.1797 28.8893 62.681 28.7266 63.332 28.7266C63.9831 28.7266 64.543 28.8958 65.0117 29.2344C65.4284 28.8958 65.9362 28.7266 66.5352 28.7266C67.1341 28.7266 67.6354 28.8698 68.0391 29.1562C68.612 28.8698 69.1849 28.7266 69.7578 28.7266C70.3307 28.7266 70.7865 28.9154 71.125 29.293C71.4766 29.6576 71.6523 30.1328 71.6523 30.7188C71.6523 31.0182 71.5807 31.2201 71.4375 31.3242C71.099 31.1029 70.6888 30.9922 70.207 30.9922C69.3216 30.9922 68.5729 31.3242 67.9609 31.9883L65.3047 39.3125C64.862 40.5365 64.6406 41.3698 64.6406 41.8125ZM50.5391 34.5078C50.3438 34.7812 50.2461 35.1914 50.2461 35.7383C50.2461 36.2852 50.3568 36.8776 50.5781 37.5156L51.2812 39.6055L56.5742 53.8242C56.6393 53.7461 56.6589 53.6094 56.6328 53.4141C56.6198 53.2188 56.6133 52.9388 56.6133 52.5742C56.6133 52.1966 56.5938 51.8711 56.5547 51.5977C56.5156 51.3112 56.4635 51.0182 56.3984 50.7188C56.3073 50.1979 56.151 49.612 55.9297 48.9609L50.5391 34.5078ZM34.2109 34.5859C33.9505 34.7422 33.8203 34.9896 33.8203 35.3281C33.8203 35.6536 33.8333 35.901 33.8594 36.0703C33.8854 36.2396 33.9375 36.4609 34.0156 36.7344C34.1849 37.4245 34.3997 38.1536 34.6602 38.9219C34.9336 39.6771 35.1159 40.2174 35.207 40.543C35.2982 40.8555 35.3633 41.1224 35.4023 41.3438C35.4544 41.5651 35.487 41.7474 35.5 41.8906C35.513 42.0339 35.526 42.1901 35.5391 42.3594C35.5651 42.7109 35.1615 43.056 34.3281 43.3945C34.862 43.4987 35.2786 43.5898 35.5781 43.668C35.8906 43.7461 36.112 43.8958 36.2422 44.1172C36.3724 44.3255 36.5547 44.6771 36.7891 45.1719C37.0365 45.6667 37.2969 46.2266 37.5703 46.8516L38.4102 48.8438C38.6966 49.5339 38.944 50.1719 39.1523 50.7578C39.3737 51.3438 39.5755 51.8255 39.7578 52.2031C39.9531 52.5677 40.1354 52.8672 40.3047 53.1016C40.6302 53.5052 41.0078 53.7461 41.4375 53.8242C40.7214 52.0664 40.0443 50.3346 39.4062 48.6289C38.7812 46.9102 38.1432 45.2565 37.4922 43.668C36.8411 42.0664 36.2682 40.5104 35.7734 39C35.2917 37.4896 34.7708 36.0182 34.2109 34.5859ZM81.2617 58.7656C80.5977 59.1823 79.8424 59.3906 78.9961 59.3906C78.1497 59.3906 77.3945 59.1823 76.7305 58.7656C76.0664 59.1823 75.4479 59.3906 74.875 59.3906C74.3151 59.3906 73.8529 59.3385 73.4883 59.2344C73.1237 59.1432 72.8047 59.013 72.5312 58.8438C71.9714 58.5052 71.6914 58.082 71.6914 57.5742C71.6914 57.3138 71.763 57.0859 71.9062 56.8906C72.1927 57.112 72.5573 57.2227 73 57.2227C74.1589 57.2227 74.9596 56.7279 75.4023 55.7383V46.1875C75.4023 45.5885 75.2786 45.1458 75.0312 44.8594C74.6406 44.3776 73.9701 43.9023 73.0195 43.4336C73.9049 43.0299 74.4779 42.6719 74.7383 42.3594C75.181 41.8516 75.4023 41.2786 75.4023 40.6406V32.3984C74.9596 31.3958 74.1589 30.8945 73 30.8945C72.5573 30.8945 72.1927 31.0052 71.9062 31.2266C71.763 31.0312 71.6914 30.8099 71.6914 30.5625C71.6914 30.3021 71.763 30.0612 71.9062 29.8398C72.0625 29.6185 72.2708 29.4297 72.5312 29.2734C73.1302 28.9089 73.8138 28.7266 74.582 28.7266C75.3633 28.7266 76.0794 28.9414 76.7305 29.3711C77.4076 28.9414 78.1628 28.7266 78.9961 28.7266C79.8294 28.7266 80.5846 28.9414 81.2617 29.3711C81.9128 28.9414 82.5247 28.7266 83.0977 28.7266C83.6706 28.7266 84.1393 28.7786 84.5039 28.8828C84.8685 28.974 85.1875 29.1042 85.4609 29.2734C86.0208 29.612 86.3008 30.0352 86.3008 30.543C86.3008 30.8034 86.2292 31.0312 86.0859 31.2266C85.7995 31.0052 85.4349 30.8945 84.9922 30.8945C83.8333 30.8945 83.0326 31.3958 82.5898 32.3984V40.6406C82.5898 41.2786 82.7266 41.7539 83 42.0664C83.4297 42.5742 84.0872 43.0299 84.9727 43.4336C84.0221 43.9023 83.4167 44.2865 83.1562 44.5859C82.7786 45.0547 82.5898 45.5885 82.5898 46.1875V55.7383C83.0326 56.7279 83.8333 57.2227 84.9922 57.2227C85.4349 57.2227 85.7995 57.112 86.0859 56.8906C86.2292 57.0859 86.3008 57.3138 86.3008 57.5742C86.3008 57.8216 86.2227 58.056 86.0664 58.2773C85.9232 58.4987 85.7214 58.6875 85.4609 58.8438C84.862 59.2083 84.1784 59.3906 83.4102 59.3906C82.6419 59.3906 81.9258 59.1823 81.2617 58.7656ZM77.2773 53.8242C77.9284 53.5768 78.2865 52.724 78.3516 51.2656C78.4297 49.8073 78.4688 47.7891 78.4688 45.2109C78.4688 42.6328 78.4622 40.9206 78.4492 40.0742C78.4492 39.2148 78.4427 38.5247 78.4297 38.0039C78.3906 36.4674 78.2409 35.543 77.9805 35.2305C77.7331 34.9049 77.4987 34.6901 77.2773 34.5859C77.2773 39.1172 77.1992 41.6953 77.043 42.3203C76.8607 42.8411 76.418 43.2122 75.7148 43.4336C76.4961 43.707 76.9388 44.0391 77.043 44.4297C77.1992 45.0547 77.2773 47.3398 77.2773 51.2852V53.8242ZM92.7266 58.8633C92.2448 59.2148 91.6914 59.3906 91.0664 59.3906C90.4544 59.3906 89.9596 59.2344 89.582 58.9219C89.2174 58.5964 89.0352 58.2253 89.0352 57.8086C89.0352 57.3919 89.1003 57.0859 89.2305 56.8906C89.6081 57.112 90.2005 57.2227 91.0078 57.2227C91.8281 57.2227 92.5052 56.6693 93.0391 55.5625V46.1875C93.0391 45.5755 92.9089 45.1198 92.6484 44.8203C92.2578 44.3516 91.5938 43.8893 90.6562 43.4336C91.6068 42.9779 92.2057 42.6003 92.4531 42.3008C92.8438 41.806 93.0391 41.2526 93.0391 40.6406V32.3984C92.5964 31.3958 91.7956 30.8945 90.6367 30.8945C90.194 30.8945 89.8294 31.0052 89.543 31.2266C89.3997 31.0312 89.3281 30.8034 89.3281 30.543C89.3281 30.2826 89.3932 30.0417 89.5234 29.8203C89.6536 29.599 89.8229 29.4036 90.0312 29.2344C90.487 28.8958 91.099 28.7266 91.8672 28.7266C92.6484 28.7266 93.3125 28.9414 93.8594 29.3711C94.224 28.9414 94.7253 28.7266 95.3633 28.7266C96.0013 28.7266 96.5156 28.9479 96.9062 29.3906C97.2839 28.9479 97.668 28.7266 98.0586 28.7266C98.4622 28.7266 98.7617 28.7656 98.957 28.8438C99.1654 28.9219 99.3411 29.026 99.4844 29.1562C99.6927 29.3255 99.9271 29.6576 100.188 30.1523L112.297 51.9688V46.0117C112.297 45.4388 112.173 45.0156 111.926 44.7422C111.548 44.3385 110.878 43.9023 109.914 43.4336C110.812 42.9909 111.392 42.6328 111.652 42.3594C112.082 41.9036 112.297 41.3958 112.297 40.8359V32.6523C111.997 32.1055 111.626 31.6758 111.184 31.3633C110.754 31.0508 110.259 30.8945 109.699 30.8945C109.152 30.8945 108.69 31.0052 108.312 31.2266C108.169 30.9922 108.098 30.6732 108.098 30.2695C108.098 29.8529 108.299 29.4948 108.703 29.1953C109.107 28.8828 109.634 28.7266 110.285 28.7266C110.936 28.7266 111.516 28.8958 112.023 29.2344C112.479 28.8958 113 28.7266 113.586 28.7266C114.185 28.7266 114.712 28.9023 115.168 29.2539C115.676 28.9023 116.236 28.7266 116.848 28.7266C117.46 28.7266 117.948 28.8893 118.312 29.2148C118.69 29.5273 118.879 29.8919 118.879 30.3086C118.879 30.7253 118.814 31.0312 118.684 31.2266C118.306 31.0052 117.701 30.8945 116.867 30.8945C116.034 30.8945 115.37 31.4544 114.875 32.5742V40.8359C114.875 41.3958 114.992 41.806 115.227 42.0664C115.617 42.4961 116.294 42.9518 117.258 43.4336C116.203 44.0065 115.572 44.4036 115.363 44.625C115.038 44.9766 114.875 45.4388 114.875 46.0117L115.227 55.9336C115.695 56.793 116.431 57.2227 117.434 57.2227C117.876 57.2227 118.241 57.112 118.527 56.8906C118.671 57.0859 118.742 57.3138 118.742 57.5742C118.742 57.8346 118.677 58.0755 118.547 58.2969C118.417 58.5182 118.247 58.7135 118.039 58.8828C117.583 59.2214 117.03 59.3906 116.379 59.3906C115.728 59.3906 115.142 59.2604 114.621 59C113.592 59.5859 112.544 59.5404 111.477 58.8633C111.06 59.2148 110.663 59.3906 110.285 59.3906C109.908 59.3906 109.628 59.3581 109.445 59.293C109.263 59.2279 109.094 59.1107 108.938 58.9414C108.69 58.694 108.306 58.0755 107.785 57.0859L95.7734 36.3828V55.5625C96.3073 56.6693 96.9844 57.2227 97.8047 57.2227C98.625 57.2227 99.224 57.112 99.6016 56.8906C99.7448 57.125 99.8164 57.4505 99.8164 57.8672C99.8164 58.2708 99.6146 58.6289 99.2109 58.9414C98.8073 59.2409 98.2865 59.3906 97.6484 59.3906C97.0104 59.3906 96.4245 59.2279 95.8906 58.9023C95.4219 59.2279 94.8815 59.3906 94.2695 59.3906C93.6706 59.3906 93.1562 59.2148 92.7266 58.8633ZM108 53.8242C108.091 53.707 108.137 53.5247 108.137 53.2773C108.137 53.0169 108.098 52.7305 108.02 52.418C107.954 52.0924 107.857 51.7474 107.727 51.3828C107.453 50.6536 107.095 49.8724 106.652 49.0391L98.3711 34.5859C98.2799 34.7292 98.2344 34.9896 98.2344 35.3672C98.2344 36.1745 98.7878 37.5872 99.8945 39.6055L108 53.8242ZM137.16 58.7461C136.483 59.1758 135.728 59.3906 134.895 59.3906C134.074 59.3906 133.312 59.1758 132.609 58.7461C131.893 59.1758 131.236 59.3906 130.637 59.3906C130.038 59.3906 129.556 59.3385 129.191 59.2344C128.827 59.1432 128.508 59.013 128.234 58.8438C127.674 58.5052 127.395 58.082 127.395 57.5742C127.395 57.3138 127.466 57.0859 127.609 56.8906C127.896 57.112 128.273 57.2227 128.742 57.2227C129.224 57.2227 129.706 57.099 130.188 56.8516C130.682 56.6042 131.053 56.2201 131.301 55.6992V46.1875C131.301 45.5885 131.177 45.1458 130.93 44.8594C130.539 44.3776 129.868 43.9023 128.918 43.4336C129.803 43.0299 130.376 42.6719 130.637 42.3594C131.079 41.8516 131.301 41.2786 131.301 40.6406V31.5781C130.871 31.4219 130.357 31.3438 129.758 31.3438C129.172 31.3438 128.553 31.5 127.902 31.8125C127.251 32.125 126.665 32.5807 126.145 33.1797C124.986 34.5339 124.406 36.3047 124.406 38.4922C124.406 39.7552 124.615 40.6862 125.031 41.2852C124.875 41.6107 124.582 41.7734 124.152 41.7734C123.723 41.7734 123.339 41.6758 123 41.4805C122.661 41.2852 122.368 41.0182 122.121 40.6797C121.613 40.0026 121.359 39.2734 121.359 38.4922C121.359 37.7109 121.503 37.0469 121.789 36.5C121.307 35.9271 121.066 35.2826 121.066 34.5664C121.066 33.8372 121.262 33.2383 121.652 32.7695C121.105 32.1836 120.832 31.3958 120.832 30.4062C120.832 29.2604 121.359 28.4922 122.414 28.1016C122.727 27.9844 123 27.9258 123.234 27.9258C123.677 27.9258 124.009 28.0234 124.23 28.2188C124.139 28.5312 124.094 28.7526 124.094 28.8828C124.094 29.4036 124.276 29.6641 124.641 29.6641C124.836 29.6641 125.038 29.638 125.246 29.5859L126.125 29.332C127.648 28.9284 128.918 28.7266 129.934 28.7266C130.949 28.7266 131.841 28.9479 132.609 29.3906C133.273 28.9479 134.029 28.7266 134.875 28.7266C135.721 28.7266 136.49 28.9479 137.18 29.3906C137.922 28.9479 138.69 28.7266 139.484 28.7266C140.747 28.7266 141.854 28.8568 142.805 29.1172L144.543 29.5859C144.751 29.638 144.953 29.6641 145.148 29.6641C145.513 29.6641 145.695 29.4036 145.695 28.8828C145.695 28.7526 145.65 28.5312 145.559 28.2188C145.78 28.0234 146.06 27.9258 146.398 27.9258C146.737 27.9258 147.062 27.9844 147.375 28.1016C147.688 28.2188 147.961 28.388 148.195 28.6094C148.703 29.0651 148.957 29.7227 148.957 30.582C148.957 31.4284 148.684 32.1576 148.137 32.7695C148.527 33.2383 148.723 33.8307 148.723 34.5469C148.723 35.263 148.475 35.9141 147.98 36.5C148.28 37.0339 148.43 37.5677 148.43 38.1016C148.43 38.6354 148.365 39.1172 148.234 39.5469C148.104 39.9766 147.915 40.3542 147.668 40.6797C147.134 41.4089 146.464 41.7734 145.656 41.7734C145.214 41.7734 144.914 41.6107 144.758 41.2852C145.174 40.6862 145.383 39.7878 145.383 38.5898C145.383 37.3789 145.22 36.3307 144.895 35.4453C144.582 34.5469 144.165 33.7917 143.645 33.1797C142.59 31.9557 141.346 31.3438 139.914 31.3438C139.367 31.3438 138.892 31.4219 138.488 31.5781V40.6406C138.488 41.2786 138.625 41.7539 138.898 42.0664C139.328 42.5742 139.986 43.0299 140.871 43.4336C139.921 43.9023 139.315 44.2865 139.055 44.5859C138.677 45.0547 138.488 45.5885 138.488 46.1875V55.6992C138.723 56.2201 139.081 56.6042 139.562 56.8516C140.057 57.099 140.546 57.2227 141.027 57.2227C141.509 57.2227 141.893 57.112 142.18 56.8906C142.323 57.0859 142.395 57.3138 142.395 57.5742C142.395 57.8216 142.316 58.056 142.16 58.2773C142.017 58.4987 141.815 58.6875 141.555 58.8438C140.956 59.2083 140.253 59.3906 139.445 59.3906C138.651 59.3906 137.889 59.1758 137.16 58.7461ZM133.176 53.8242C133.827 53.5768 134.185 52.724 134.25 51.2656C134.328 49.8073 134.367 47.7891 134.367 45.2109C134.367 42.6328 134.361 40.9206 134.348 40.0742C134.348 39.2148 134.341 38.5247 134.328 38.0039C134.289 36.4674 134.139 35.543 133.879 35.2305C133.632 34.9049 133.397 34.6901 133.176 34.5859C133.176 39.1172 133.098 41.6953 132.941 42.3203C132.759 42.8411 132.316 43.2122 131.613 43.4336C132.395 43.707 132.837 44.0391 132.941 44.4297C133.098 45.0547 133.176 47.3398 133.176 51.2852V53.8242ZM160.676 58.7656C160.012 59.1823 159.257 59.3906 158.41 59.3906C157.564 59.3906 156.809 59.1823 156.145 58.7656C155.48 59.1823 154.862 59.3906 154.289 59.3906C153.729 59.3906 153.267 59.3385 152.902 59.2344C152.538 59.1432 152.219 59.013 151.945 58.8438C151.385 58.5052 151.105 58.082 151.105 57.5742C151.105 57.3138 151.177 57.0859 151.32 56.8906C151.607 57.112 151.971 57.2227 152.414 57.2227C153.573 57.2227 154.374 56.7279 154.816 55.7383V46.1875C154.816 45.5885 154.693 45.1458 154.445 44.8594C154.055 44.3776 153.384 43.9023 152.434 43.4336C153.319 43.0299 153.892 42.6719 154.152 42.3594C154.595 41.8516 154.816 41.2786 154.816 40.6406V32.3984C154.374 31.3958 153.573 30.8945 152.414 30.8945C151.971 30.8945 151.607 31.0052 151.32 31.2266C151.177 31.0312 151.105 30.8099 151.105 30.5625C151.105 30.3021 151.177 30.0612 151.32 29.8398C151.477 29.6185 151.685 29.4297 151.945 29.2734C152.544 28.9089 153.228 28.7266 153.996 28.7266C154.777 28.7266 155.493 28.9414 156.145 29.3711C156.822 28.9414 157.577 28.7266 158.41 28.7266C159.243 28.7266 159.999 28.9414 160.676 29.3711C162.147 28.8112 163.775 28.5312 165.559 28.5312C167.355 28.5312 168.859 28.694 170.07 29.0195C171.281 29.3451 172.323 29.8073 173.195 30.4062C174.953 31.6172 176.047 33.3034 176.477 35.4648C176.646 36.4284 177.264 37.1576 178.332 37.6523C177.316 38.2253 176.652 39.1367 176.34 40.3867C175.702 42.9648 174.107 44.5729 171.555 45.2109C172.87 45.5625 173.944 46.2852 174.777 47.3789C175.637 48.5117 176.066 49.8464 176.066 51.3828V53.3359C176.066 55.2109 176.672 56.4219 177.883 56.9688C178.247 57.138 178.645 57.2227 179.074 57.2227C179.504 57.2227 179.862 57.112 180.148 56.8906C180.292 57.0859 180.363 57.3138 180.363 57.5742C180.363 57.8216 180.298 58.056 180.168 58.2773C180.038 58.4987 179.862 58.6875 179.641 58.8438C179.172 59.2083 178.625 59.3906 178 59.3906C177.375 59.3906 176.763 59.2214 176.164 58.8828C175.07 59.4818 174.048 59.5404 173.098 59.0586C172.733 59.2799 172.349 59.3906 171.945 59.3906C171.542 59.3906 171.151 59.2995 170.773 59.1172C170.409 58.9349 170.083 58.6354 169.797 58.2188C169.185 57.3203 168.879 55.9401 168.879 54.0781V52.6328C168.879 49.625 168.02 47.6719 166.301 46.7734C165.728 46.474 165.057 46.3242 164.289 46.3242H162.004V55.8359C162.355 56.7604 163.026 57.2227 164.016 57.2227C164.458 57.2227 164.823 57.112 165.109 56.8906C165.253 57.0859 165.324 57.3724 165.324 57.75C165.324 58.1276 165.116 58.4987 164.699 58.8633C164.296 59.2148 163.684 59.3906 162.863 59.3906C162.043 59.3906 161.314 59.1823 160.676 58.7656ZM165.754 31.1289C163.254 31.1289 162.004 32.099 162.004 34.0391V42.0273C162.004 42.7044 162.271 43.1602 162.805 43.3945C163.312 43.6159 164.061 43.7266 165.051 43.7266C166.053 43.7266 166.75 43.6745 167.141 43.5703C167.544 43.4531 167.889 43.2578 168.176 42.9844C168.762 42.4245 169.055 41.487 169.055 40.1719V34.4688C169.055 32.8411 168.378 31.7995 167.023 31.3438C166.62 31.2005 166.197 31.1289 165.754 31.1289ZM170.363 32.3789C170.767 33.2904 170.969 34.7487 170.969 36.7539C170.969 40.2044 170.806 42.2682 170.48 42.9453C171.197 42.8021 171.711 41.8451 172.023 40.0742L172.18 39.2734C172.323 38.4271 172.74 37.8867 173.43 37.6523C172.922 37.4831 172.596 37.2812 172.453 37.0469C172.297 36.7734 172.154 36.3112 172.023 35.6602C171.906 34.9961 171.783 34.4622 171.652 34.0586C171.522 33.6549 171.385 33.3359 171.242 33.1016C170.995 32.6849 170.702 32.444 170.363 32.3789ZM156.691 53.8242C157.342 53.5768 157.701 52.724 157.766 51.2656C157.844 49.8073 157.883 47.7891 157.883 45.2109C157.883 42.6328 157.876 40.9206 157.863 40.0742C157.863 39.2148 157.857 38.5247 157.844 38.0039C157.805 36.4674 157.655 35.543 157.395 35.2305C157.147 34.9049 156.913 34.6901 156.691 34.5859C156.691 39.1172 156.613 41.6953 156.457 42.3203C156.275 42.8411 155.832 43.2122 155.129 43.4336C155.91 43.707 156.353 44.0391 156.457 44.4297C156.613 45.0547 156.691 47.3398 156.691 51.2852V53.8242ZM170.168 48.4727C170.689 49.0586 170.949 49.7747 170.949 50.6211V53.1992C170.949 55.3607 171.379 56.513 172.238 56.6562C172.473 56.6953 172.701 56.6888 172.922 56.6367C172.453 55.9076 172.219 55.1393 172.219 54.332V51.5977C172.219 50.569 172.076 49.8398 171.789 49.4102C171.294 48.681 170.754 48.3685 170.168 48.4727ZM196.008 58.7656C195.344 59.1823 194.589 59.3906 193.742 59.3906C192.896 59.3906 192.141 59.1823 191.477 58.7656C190.812 59.1823 190.194 59.3906 189.621 59.3906C189.061 59.3906 188.586 59.3385 188.195 59.2344C187.818 59.1432 187.479 59.013 187.18 58.8438C186.555 58.5052 186.242 58.082 186.242 57.5742C186.242 57.3138 186.314 57.0859 186.457 56.8906C186.743 57.112 187.121 57.2227 187.59 57.2227C188.072 57.2227 188.553 57.099 189.035 56.8516C189.53 56.6042 189.901 56.2201 190.148 55.6992V51.8516C190.148 51.2526 190.031 50.8099 189.797 50.5234C189.38 50.0156 188.703 49.5339 187.766 49.0781C188.638 48.6745 189.211 48.3229 189.484 48.0234C189.927 47.5156 190.148 46.9427 190.148 46.3047V45.6016L182.297 32.0078C181.542 31.3307 180.871 30.9922 180.285 30.9922C179.699 30.9922 179.237 31.1029 178.898 31.3242C178.755 31.2201 178.684 31.0247 178.684 30.7383C178.684 30.4518 178.729 30.1914 178.82 29.957C178.911 29.7096 179.055 29.4948 179.25 29.3125C179.667 28.9219 180.272 28.7266 181.066 28.7266C181.861 28.7266 182.564 28.9544 183.176 29.4102C183.827 28.9544 184.595 28.7266 185.48 28.7266C186.379 28.7266 187.115 28.9479 187.688 29.3906C188.378 28.9479 189.022 28.7266 189.621 28.7266C190.22 28.7266 190.702 28.7721 191.066 28.8633C191.431 28.9414 191.75 29.0651 192.023 29.2344C192.609 29.5729 192.915 30.0417 192.941 30.6406C192.941 31.0052 192.87 31.2331 192.727 31.3242C192.375 31.1029 192.023 30.9922 191.672 30.9922C190.917 30.9922 190.305 31.1289 189.836 31.4023L195.676 42.6133L201.223 31.3828C200.689 31.0573 200.07 30.8945 199.367 30.8945C198.677 30.8945 198.143 31.0052 197.766 31.2266C197.635 31.0312 197.57 30.7253 197.57 30.3086C197.57 29.8919 197.746 29.5273 198.098 29.2148C198.449 28.8893 198.951 28.7266 199.602 28.7266C200.253 28.7266 200.812 28.8958 201.281 29.2344C201.698 28.8958 202.206 28.7266 202.805 28.7266C203.404 28.7266 203.905 28.8698 204.309 29.1562C204.882 28.8698 205.454 28.7266 206.027 28.7266C206.6 28.7266 207.056 28.9154 207.395 29.293C207.746 29.6576 207.922 30.1328 207.922 30.7188C207.922 31.0182 207.85 31.2201 207.707 31.3242C207.368 31.1029 206.952 30.9922 206.457 30.9922C205.598 30.9922 204.836 31.2266 204.172 31.6953L197.336 45.2305V46.3047C197.336 46.9427 197.473 47.418 197.746 47.7305C198.189 48.2253 198.846 48.6745 199.719 49.0781C198.781 49.5339 198.182 49.918 197.922 50.2305C197.531 50.7122 197.336 51.2526 197.336 51.8516V55.6992C197.57 56.2201 197.928 56.6042 198.41 56.8516C198.905 57.099 199.393 57.2227 199.875 57.2227C200.357 57.2227 200.741 57.112 201.027 56.8906C201.171 57.0859 201.242 57.3138 201.242 57.5742C201.242 57.8216 201.158 58.056 200.988 58.2773C200.819 58.4987 200.591 58.6875 200.305 58.8438C199.654 59.2083 198.938 59.3906 198.156 59.3906C197.388 59.3906 196.672 59.1823 196.008 58.7656ZM192.023 53.8242C192.714 53.5638 193.091 52.5417 193.156 50.7578C193.169 50.2109 193.176 49.651 193.176 49.0781V45.8164C193.176 45.1914 193.059 44.6771 192.824 44.2734L188.82 37.0273C188.26 36.0508 187.857 35.4453 187.609 35.2109C187.219 34.8464 186.75 34.638 186.203 34.5859L192.062 45.4453V46.4023C192.062 47.1706 192.01 47.6979 191.906 47.9844C191.75 48.4792 191.268 48.8503 190.461 49.0977C191.333 49.4232 191.828 49.8203 191.945 50.2891C192.036 50.6536 192.082 51.0833 192.082 51.5781C192.082 52.0599 192.069 52.4831 192.043 52.8477C192.03 53.2122 192.023 53.5378 192.023 53.8242ZM252.922 41.8125C252.922 42.5156 253.553 43.056 254.816 43.4336C253.749 43.8633 253.007 44.2669 252.59 44.6445C251.796 45.3867 251.171 46.3503 250.715 47.5352L247.316 57.3008C246.587 59.1497 246.034 60.1914 245.656 60.4258C245.539 60.5039 245.402 60.543 245.246 60.543C245.09 60.543 244.96 60.4974 244.855 60.4062L238.195 41.0508L232.082 57.3008C231.353 59.1237 230.799 60.1654 230.422 60.4258C230.305 60.5039 230.168 60.543 230.012 60.543C229.855 60.543 229.725 60.4974 229.621 60.4062L223.312 46.207C223 45.4648 222.668 44.9375 222.316 44.625C221.77 44.1562 221.053 43.7591 220.168 43.4336C221.288 42.7956 221.835 42.2031 221.809 41.6562C221.809 41.3047 221.678 40.8164 221.418 40.1914L220.871 38.8633L218.215 31.6953C217.538 31.2266 216.945 30.9922 216.438 30.9922C215.943 30.9922 215.533 31.1029 215.207 31.3242C215.064 31.2201 214.992 31.0247 214.992 30.7383C214.992 30.4518 215.038 30.1914 215.129 29.957C215.22 29.7096 215.363 29.4948 215.559 29.3125C215.975 28.9219 216.581 28.7266 217.375 28.7266C218.169 28.7266 218.872 28.9544 219.484 29.4102C220.135 28.9544 220.904 28.7266 221.789 28.7266C222.688 28.7266 223.423 28.9479 223.996 29.3906C224.686 28.9479 225.331 28.7266 225.93 28.7266C226.529 28.7266 227.01 28.7721 227.375 28.8633C227.74 28.9414 228.059 29.0651 228.332 29.2344C228.918 29.5729 229.224 30.0417 229.25 30.6406C229.25 31.0052 229.178 31.2331 229.035 31.3242C228.684 31.1029 228.326 30.9922 227.961 30.9922C227.141 30.9922 226.503 31.1484 226.047 31.4609L232.395 49.1953L236.711 36.7539L234.973 31.6758C234.309 31.2201 233.729 30.9922 233.234 30.9922C232.74 30.9922 232.329 31.1029 232.004 31.3242C231.861 31.2201 231.789 31.0247 231.789 30.7383C231.789 30.4518 231.835 30.1914 231.926 29.957C232.017 29.7096 232.16 29.4948 232.355 29.3125C232.772 28.9219 233.378 28.7266 234.172 28.7266C234.966 28.7266 235.669 28.9544 236.281 29.4102C236.932 28.9544 237.701 28.7266 238.586 28.7266C239.484 28.7266 240.22 28.9479 240.793 29.3906C241.483 28.9479 242.128 28.7266 242.727 28.7266C243.326 28.7266 243.807 28.7721 244.172 28.8633C244.536 28.9414 244.855 29.0651 245.129 29.2344C245.715 29.5729 246.021 30.0417 246.047 30.6406C246.047 31.0052 245.975 31.2331 245.832 31.3242C245.48 31.1029 245.122 30.9922 244.758 30.9922C243.911 30.9922 243.267 31.1549 242.824 31.4805L248.039 47.8281L253.312 31.5195C252.896 31.1029 252.297 30.8945 251.516 30.8945C250.734 30.8945 250.155 31.0052 249.777 31.2266C249.647 31.0312 249.582 30.7253 249.582 30.3086C249.582 29.8919 249.758 29.5273 250.109 29.2148C250.461 28.8893 250.962 28.7266 251.613 28.7266C252.264 28.7266 252.824 28.8958 253.293 29.2344C253.71 28.8958 254.217 28.7266 254.816 28.7266C255.415 28.7266 255.917 28.8698 256.32 29.1562C256.893 28.8698 257.466 28.7266 258.039 28.7266C258.612 28.7266 259.068 28.9154 259.406 29.293C259.758 29.6576 259.934 30.1328 259.934 30.7188C259.934 31.0182 259.862 31.2201 259.719 31.3242C259.38 31.1029 258.97 30.9922 258.488 30.9922C257.603 30.9922 256.854 31.3242 256.242 31.9883L253.586 39.3125C253.143 40.5365 252.922 41.3698 252.922 41.8125ZM238.82 34.5078C238.625 34.7812 238.527 35.1914 238.527 35.7383C238.527 36.2852 238.638 36.8776 238.859 37.5156L239.562 39.6055L244.855 53.8242C244.921 53.7461 244.94 53.6094 244.914 53.4141C244.901 53.2188 244.895 52.9388 244.895 52.5742C244.895 52.1966 244.875 51.8711 244.836 51.5977C244.797 51.3112 244.745 51.0182 244.68 50.7188C244.589 50.1979 244.432 49.612 244.211 48.9609L238.82 34.5078ZM222.492 34.5859C222.232 34.7422 222.102 34.9896 222.102 35.3281C222.102 35.6536 222.115 35.901 222.141 36.0703C222.167 36.2396 222.219 36.4609 222.297 36.7344C222.466 37.4245 222.681 38.1536 222.941 38.9219C223.215 39.6771 223.397 40.2174 223.488 40.543C223.579 40.8555 223.645 41.1224 223.684 41.3438C223.736 41.5651 223.768 41.7474 223.781 41.8906C223.794 42.0339 223.807 42.1901 223.82 42.3594C223.846 42.7109 223.443 43.056 222.609 43.3945C223.143 43.4987 223.56 43.5898 223.859 43.668C224.172 43.7461 224.393 43.8958 224.523 44.1172C224.654 44.3255 224.836 44.6771 225.07 45.1719C225.318 45.6667 225.578 46.2266 225.852 46.8516L226.691 48.8438C226.978 49.5339 227.225 50.1719 227.434 50.7578C227.655 51.3438 227.857 51.8255 228.039 52.2031C228.234 52.5677 228.417 52.8672 228.586 53.1016C228.911 53.5052 229.289 53.7461 229.719 53.8242C229.003 52.0664 228.326 50.3346 227.688 48.6289C227.062 46.9102 226.424 45.2565 225.773 43.668C225.122 42.0664 224.549 40.5104 224.055 39C223.573 37.4896 223.052 36.0182 222.492 34.5859ZM267.297 59.3906C266.438 59.3906 265.676 59.1823 265.012 58.7656C264.348 59.1823 263.729 59.3906 263.156 59.3906C262.596 59.3906 262.134 59.3385 261.77 59.2344C261.405 59.1432 261.086 59.013 260.812 58.8438C260.253 58.5052 259.973 58.082 259.973 57.5742C259.973 57.3138 260.044 57.0859 260.188 56.8906C260.474 57.112 260.839 57.2227 261.281 57.2227C262.44 57.2227 263.241 56.7279 263.684 55.7383V46.1875C263.684 45.5885 263.56 45.1458 263.312 44.8594C262.922 44.3776 262.251 43.9023 261.301 43.4336C262.186 43.0299 262.759 42.6719 263.02 42.3594C263.462 41.8516 263.684 41.2786 263.684 40.6406V32.3984C263.241 31.3958 262.44 30.8945 261.281 30.8945C260.839 30.8945 260.474 31.0052 260.188 31.2266C260.044 31.0312 259.973 30.8099 259.973 30.5625C259.973 30.3021 260.044 30.0612 260.188 29.8398C260.344 29.6185 260.552 29.4297 260.812 29.2734C261.411 28.9089 262.095 28.7266 262.863 28.7266C263.645 28.7266 264.361 28.9414 265.012 29.3711C265.689 28.9414 266.464 28.7266 267.336 28.7266C268.208 28.7266 269.003 28.9805 269.719 29.4883C271.099 28.9805 272.694 28.7266 274.504 28.7266C275.845 28.7266 276.991 28.8568 277.941 29.1172L279.68 29.5859C279.888 29.638 280.09 29.6641 280.285 29.6641C280.65 29.6641 280.832 29.4036 280.832 28.8828C280.832 28.7526 280.786 28.5312 280.695 28.2188C281.06 28.1536 281.522 28.1211 282.082 28.1211C282.642 28.1211 283.117 28.3099 283.508 28.6875C283.898 29.0521 284.094 29.5859 284.094 30.2891C284.094 30.9792 283.97 31.487 283.723 31.8125C284.074 32.3333 284.25 32.9714 284.25 33.7266C284.25 34.4688 283.996 35.0938 283.488 35.6016C283.645 35.9922 283.723 36.3763 283.723 36.7539C283.723 37.1185 283.658 37.457 283.527 37.7695C283.41 38.069 283.26 38.3229 283.078 38.5312C282.714 38.9089 282.342 39.0977 281.965 39.0977C281.418 39.0977 280.923 38.9805 280.48 38.7461C280.637 38.4336 280.715 37.9714 280.715 37.3594C280.715 35.9271 280.357 34.6706 279.641 33.5898C278.664 32.1055 277.199 31.3633 275.246 31.3633C274.257 31.3633 273.358 31.6042 272.551 32.0859C271.757 32.5677 271.197 33.2578 270.871 34.1562V41.7148C271.327 42.0013 271.75 42.1445 272.141 42.1445C272.544 42.1445 272.844 42.138 273.039 42.125C273.247 42.112 273.456 42.0859 273.664 42.0469C274.198 41.9688 274.608 41.8646 274.895 41.7344C275.441 41.474 275.715 40.8359 275.715 39.8203C275.715 39.2474 275.578 38.8047 275.305 38.4922C275.565 38.3099 275.891 38.2188 276.281 38.2188C277.154 38.2188 277.785 38.5703 278.176 39.2734C278.319 39.5208 278.391 39.7943 278.391 40.0938C278.391 40.3932 278.312 40.7643 278.156 41.207C278.69 41.819 278.957 42.5482 278.957 43.3945C278.957 44.2279 278.69 44.9505 278.156 45.5625C278.312 46.0052 278.391 46.4089 278.391 46.7734C278.391 47.125 278.319 47.4635 278.176 47.7891C278.033 48.1146 277.857 48.375 277.648 48.5703C277.245 48.9349 276.789 49.1172 276.281 49.1172C275.917 49.1172 275.591 49.013 275.305 48.8047C275.578 48.349 275.715 47.8151 275.715 47.2031C275.715 45.9922 275.383 45.2435 274.719 44.957C274.133 44.7227 273.462 44.6055 272.707 44.6055C271.952 44.6055 271.34 44.7422 270.871 45.0156V54.7812C271.626 56.1094 273.085 56.7734 275.246 56.7734C277.694 56.7734 279.361 56.0182 280.246 54.5078C281.275 52.776 281.789 50.9206 281.789 48.9414C281.789 48.3685 281.737 47.9258 281.633 47.6133C281.958 47.2878 282.297 47.125 282.648 47.125C283 47.125 283.267 47.1771 283.449 47.2812C283.632 47.3724 283.794 47.4896 283.938 47.6328C284.25 47.9844 284.406 48.3424 284.406 48.707L284.289 49.6641C284.289 49.9115 284.354 50.1133 284.484 50.2695C284.745 50.543 284.875 50.8034 284.875 51.0508C284.875 51.2852 284.797 51.5716 284.641 51.9102C284.94 52.0794 285.207 52.3333 285.441 52.6719C285.689 52.9974 285.812 53.3359 285.812 53.6875C285.812 54.4297 285.5 55.0938 284.875 55.6797C285.148 56.0703 285.285 56.6367 285.285 57.3789C285.285 58.1081 285.07 58.7266 284.641 59.2344C284.224 59.7552 283.677 60.0156 283 60.0156C282.635 60.0156 282.258 59.9766 281.867 59.8984C281.919 59.612 281.945 59.3255 281.945 59.0391C281.945 58.4401 281.672 58.1406 281.125 58.1406C280.513 58.1406 279.901 58.2643 279.289 58.5117C277.844 59.0977 276.197 59.3906 274.348 59.3906C272.512 59.3906 270.949 59.1497 269.66 58.668C268.983 59.1497 268.195 59.3906 267.297 59.3906ZM265.559 53.8242C266.21 53.5768 266.568 52.724 266.633 51.2656C266.711 49.8073 266.75 47.7891 266.75 45.2109C266.75 42.6328 266.743 40.9206 266.73 40.0742C266.73 39.2148 266.724 38.5247 266.711 38.0039C266.672 36.4674 266.522 35.543 266.262 35.2305C266.014 34.9049 265.78 34.6901 265.559 34.5859C265.559 39.1172 265.48 41.6953 265.324 42.3203C265.142 42.8411 264.699 43.2122 263.996 43.4336C264.777 43.707 265.22 44.0391 265.324 44.4297C265.48 45.0547 265.559 47.3398 265.559 51.2852V53.8242ZM270.48 53.6289C270.48 53.668 270.487 53.7005 270.5 53.7266L270.48 53.6289ZM293.547 58.2383C292.505 59.2799 291.516 59.8008 290.578 59.8008C289.979 59.8008 289.576 59.5794 289.367 59.1367C289.667 58.7721 289.816 58.2253 289.816 57.4961V57.2031C289.816 57.125 289.81 57.0534 289.797 56.9883C289.146 56.4023 288.82 55.7122 288.82 54.918C288.82 54.1107 289.198 53.2904 289.953 52.457C289.732 52.0143 289.621 51.5456 289.621 51.0508C289.621 50.543 289.693 50.0742 289.836 49.6445C289.992 49.2018 290.201 48.8177 290.461 48.4922C291.008 47.776 291.542 47.418 292.062 47.418C292.596 47.418 292.974 47.6263 293.195 48.043C292.727 48.5378 292.492 49.3125 292.492 50.3672C292.492 51.4219 292.642 52.3398 292.941 53.1211C293.254 53.9023 293.69 54.5729 294.25 55.1328C295.448 56.3568 296.978 56.9688 298.84 56.9688C300.09 56.9688 301.151 56.6107 302.023 55.8945C302.961 55.1263 303.43 54.0781 303.43 52.75C303.43 51.8125 303.208 51.0508 302.766 50.4648C302.076 49.5534 300.995 48.5898 299.523 47.5742C298.391 46.7799 297.486 46.3828 296.809 46.3828C296.118 46.3828 295.357 46.6628 294.523 47.2227C294.745 46.5586 294.855 45.9401 294.855 45.3672C294.855 45.237 294.732 45.0677 294.484 44.8594L293.762 44.2148C291.483 42.1185 290.135 40.1719 289.719 38.375C289.576 37.75 289.504 36.9688 289.504 36.0312C289.504 35.0807 289.732 34.1237 290.188 33.1602C290.656 32.1836 291.294 31.3568 292.102 30.6797C293.781 29.2474 295.917 28.5312 298.508 28.5312C300.083 28.5312 301.529 28.7852 302.844 29.293C303.404 29.5143 304.042 29.625 304.758 29.625C305.057 29.625 305.324 29.612 305.559 29.5859C305.806 29.5469 306.021 29.4102 306.203 29.1758C306.372 28.9284 306.457 28.707 306.457 28.5117C306.457 28.3164 306.431 28.1536 306.379 28.0234C306.47 27.9844 306.594 27.9648 306.75 27.9648C306.919 27.9648 307.102 28.0234 307.297 28.1406C307.492 28.2448 307.668 28.3945 307.824 28.5898C308.176 29.0326 308.352 29.5339 308.352 30.0938C308.352 30.6406 308.195 31.0573 307.883 31.3438C308.326 31.7344 308.547 32.3398 308.547 33.1602C308.547 33.9674 308.273 34.6445 307.727 35.1914C307.831 35.543 307.883 35.862 307.883 36.1484C307.883 36.4219 307.831 36.6888 307.727 36.9492C307.635 37.1966 307.505 37.4115 307.336 37.5938C306.958 37.9974 306.6 38.1992 306.262 38.1992C305.728 38.1992 305.279 38.1081 304.914 37.9258C305.135 37.4049 305.246 36.8451 305.246 36.2461C305.246 35.6471 305.109 35.0352 304.836 34.4102C304.576 33.7721 304.204 33.2188 303.723 32.75C302.707 31.7865 301.379 31.3047 299.738 31.3047C298.697 31.3047 297.844 31.6237 297.18 32.2617C296.555 32.8607 296.242 33.5833 296.242 34.4297C296.242 35.0677 296.398 35.6016 296.711 36.0312C297.258 36.7734 298.124 37.5417 299.309 38.3359L300.246 38.9609C300.767 39.2865 301.118 39.4492 301.301 39.4492C301.483 39.4492 301.665 39.4297 301.848 39.3906C302.03 39.3516 302.232 39.2995 302.453 39.2344C302.922 39.0781 303.378 38.8568 303.82 38.5703L303.566 39.6641C303.488 40.0286 303.449 40.2956 303.449 40.4648C303.449 40.7383 303.586 40.9857 303.859 41.207C306.294 43.3164 307.922 45.0807 308.742 46.5C309.458 47.737 309.816 49.0716 309.816 50.5039C309.816 51.9362 309.582 53.1667 309.113 54.1953C308.645 55.224 307.961 56.1354 307.062 56.9297C305.083 58.7005 302.512 59.5859 299.348 59.5859C297.121 59.5859 295.188 59.1367 293.547 58.2383ZM292.219 34.5859C291.724 34.7943 291.477 35.3346 291.477 36.207C291.477 37.9909 292.668 39.9505 295.051 42.0859L296.223 43.1406C296.626 43.5052 296.802 43.7852 296.75 43.9805C296.711 44.1758 296.672 44.332 296.633 44.4492C296.607 44.5664 296.574 44.6771 296.535 44.7812C296.496 44.8854 296.47 44.9635 296.457 45.0156C296.913 44.7422 297.284 44.6055 297.57 44.6055C298.143 44.6055 298.684 44.7617 299.191 45.0742C301.704 46.6367 303.41 48.0299 304.309 49.2539C304.96 50.1523 305.298 51.2721 305.324 52.6133C305.324 53.0951 305.292 53.4987 305.227 53.8242C305.917 53.3815 306.262 52.6784 306.262 51.7148C306.262 50.7773 306.132 50.0547 305.871 49.5469C305.624 49.0391 305.331 48.5898 304.992 48.1992C304.654 47.7956 304.211 47.3594 303.664 46.8906C303.13 46.4219 302.466 45.9141 301.672 45.3672L298.898 43.4727C296.62 41.9753 294.888 40.3932 293.703 38.7266C292.661 37.2552 292.167 35.875 292.219 34.5859ZM328.215 58.7461C327.538 59.1758 326.783 59.3906 325.949 59.3906C325.129 59.3906 324.367 59.1758 323.664 58.7461C322.948 59.1758 322.29 59.3906 321.691 59.3906C321.092 59.3906 320.611 59.3385 320.246 59.2344C319.882 59.1432 319.562 59.013 319.289 58.8438C318.729 58.5052 318.449 58.082 318.449 57.5742C318.449 57.3138 318.521 57.0859 318.664 56.8906C318.951 57.112 319.328 57.2227 319.797 57.2227C320.279 57.2227 320.76 57.099 321.242 56.8516C321.737 56.6042 322.108 56.2201 322.355 55.6992V46.1875C322.355 45.5885 322.232 45.1458 321.984 44.8594C321.594 44.3776 320.923 43.9023 319.973 43.4336C320.858 43.0299 321.431 42.6719 321.691 42.3594C322.134 41.8516 322.355 41.2786 322.355 40.6406V31.5781C321.926 31.4219 321.411 31.3438 320.812 31.3438C320.227 31.3438 319.608 31.5 318.957 31.8125C318.306 32.125 317.72 32.5807 317.199 33.1797C316.04 34.5339 315.461 36.3047 315.461 38.4922C315.461 39.7552 315.669 40.6862 316.086 41.2852C315.93 41.6107 315.637 41.7734 315.207 41.7734C314.777 41.7734 314.393 41.6758 314.055 41.4805C313.716 41.2852 313.423 41.0182 313.176 40.6797C312.668 40.0026 312.414 39.2734 312.414 38.4922C312.414 37.7109 312.557 37.0469 312.844 36.5C312.362 35.9271 312.121 35.2826 312.121 34.5664C312.121 33.8372 312.316 33.2383 312.707 32.7695C312.16 32.1836 311.887 31.3958 311.887 30.4062C311.887 29.2604 312.414 28.4922 313.469 28.1016C313.781 27.9844 314.055 27.9258 314.289 27.9258C314.732 27.9258 315.064 28.0234 315.285 28.2188C315.194 28.5312 315.148 28.7526 315.148 28.8828C315.148 29.4036 315.331 29.6641 315.695 29.6641C315.891 29.6641 316.092 29.638 316.301 29.5859L317.18 29.332C318.703 28.9284 319.973 28.7266 320.988 28.7266C322.004 28.7266 322.896 28.9479 323.664 29.3906C324.328 28.9479 325.083 28.7266 325.93 28.7266C326.776 28.7266 327.544 28.9479 328.234 29.3906C328.977 28.9479 329.745 28.7266 330.539 28.7266C331.802 28.7266 332.909 28.8568 333.859 29.1172L335.598 29.5859C335.806 29.638 336.008 29.6641 336.203 29.6641C336.568 29.6641 336.75 29.4036 336.75 28.8828C336.75 28.7526 336.704 28.5312 336.613 28.2188C336.835 28.0234 337.115 27.9258 337.453 27.9258C337.792 27.9258 338.117 27.9844 338.43 28.1016C338.742 28.2188 339.016 28.388 339.25 28.6094C339.758 29.0651 340.012 29.7227 340.012 30.582C340.012 31.4284 339.738 32.1576 339.191 32.7695C339.582 33.2383 339.777 33.8307 339.777 34.5469C339.777 35.263 339.53 35.9141 339.035 36.5C339.335 37.0339 339.484 37.5677 339.484 38.1016C339.484 38.6354 339.419 39.1172 339.289 39.5469C339.159 39.9766 338.97 40.3542 338.723 40.6797C338.189 41.4089 337.518 41.7734 336.711 41.7734C336.268 41.7734 335.969 41.6107 335.812 41.2852C336.229 40.6862 336.438 39.7878 336.438 38.5898C336.438 37.3789 336.275 36.3307 335.949 35.4453C335.637 34.5469 335.22 33.7917 334.699 33.1797C333.645 31.9557 332.401 31.3438 330.969 31.3438C330.422 31.3438 329.947 31.4219 329.543 31.5781V40.6406C329.543 41.2786 329.68 41.7539 329.953 42.0664C330.383 42.5742 331.04 43.0299 331.926 43.4336C330.975 43.9023 330.37 44.2865 330.109 44.5859C329.732 45.0547 329.543 45.5885 329.543 46.1875V55.6992C329.777 56.2201 330.135 56.6042 330.617 56.8516C331.112 57.099 331.6 57.2227 332.082 57.2227C332.564 57.2227 332.948 57.112 333.234 56.8906C333.378 57.0859 333.449 57.3138 333.449 57.5742C333.449 57.8216 333.371 58.056 333.215 58.2773C333.072 58.4987 332.87 58.6875 332.609 58.8438C332.01 59.2083 331.307 59.3906 330.5 59.3906C329.706 59.3906 328.944 59.1758 328.215 58.7461ZM324.23 53.8242C324.882 53.5768 325.24 52.724 325.305 51.2656C325.383 49.8073 325.422 47.7891 325.422 45.2109C325.422 42.6328 325.415 40.9206 325.402 40.0742C325.402 39.2148 325.396 38.5247 325.383 38.0039C325.344 36.4674 325.194 35.543 324.934 35.2305C324.686 34.9049 324.452 34.6901 324.23 34.5859C324.23 39.1172 324.152 41.6953 323.996 42.3203C323.814 42.8411 323.371 43.2122 322.668 43.4336C323.449 43.707 323.892 44.0391 323.996 44.4297C324.152 45.0547 324.23 47.3398 324.23 51.2852V53.8242Z" fill="black"/>
<path d="M15.3438 69.875C14.6979 70.7917 13.8854 71.25 12.9062 71.25C12.2812 71.25 11.7708 71.0938 11.375 70.7812C12.0625 69.9479 12.4479 68.9792 12.5312 67.875C10.3229 67.3333 8.60417 66.4271 7.375 65.1562C6.16667 63.8854 5.5625 62.3333 5.5625 60.5C5.5625 59.5 5.70833 58.5104 6 57.5312C7 54.2396 7.5 51.5938 7.5 49.5938C7.5 47.5729 7.10417 46.0208 6.3125 44.9375C5.52083 43.8333 4.375 43.0104 2.875 42.4688C2.625 42.3646 2.5 42.25 2.5 42.125C2.5 42 2.625 41.8854 2.875 41.7812C5.95833 40.6771 7.5 38.4271 7.5 35.0312C7.5 32.7812 7.08333 30.2708 6.25 27.5C5.79167 26 5.5625 24.75 5.5625 23.75C5.5625 21.9792 6.15625 20.4479 7.34375 19.1562C8.55208 17.8438 10.2812 16.9167 12.5312 16.375C12.4479 15.3333 12.0625 14.3646 11.375 13.4688C11.7708 13.1562 12.3646 13 13.1562 13C13.9688 13 14.6979 13.4583 15.3438 14.375C15.8854 14.2292 16.3646 14.1562 16.7812 14.1562C17.5312 14.1562 18.3646 14.3229 19.2812 14.6562C19.3229 14.8021 19.3438 14.9479 19.3438 15.0938C19.3438 15.2396 19.3438 15.3854 19.3438 15.5312C19.3438 16.7396 18.9375 17.5625 18.125 18C18.5417 18.5625 18.75 19.1354 18.75 19.7188C18.75 20.7396 18.3333 21.3438 17.5 21.5312C16.8958 20.6354 16.0208 19.8854 14.875 19.2812C13.0833 19.4271 11.875 20.125 11.25 21.375C11.0417 21.8125 10.9375 22.2604 10.9375 22.7188C10.9375 23.1562 10.9583 23.5521 11 23.9062C11.0625 24.2604 11.1771 24.6667 11.3438 25.125C11.6771 26.0417 12.1771 27.0625 12.8438 28.1875C13.5312 29.3125 14.0104 30.1667 14.2812 30.75C14.5729 31.3125 14.8125 31.8542 15 32.375C15.3125 33.2917 15.4688 34.1979 15.4688 35.0938C15.4688 35.9896 15.3646 36.7708 15.1562 37.4375C14.9479 38.1042 14.6458 38.7396 14.25 39.3438C13.3333 40.6771 12.0833 41.6042 10.5 42.125C12.875 42.9583 14.4271 44.5208 15.1562 46.8125C15.3646 47.4792 15.4688 48.1146 15.4688 48.7188C15.4688 49.3021 15.4271 49.8542 15.3438 50.375C15.2812 50.875 15.1667 51.375 15 51.875C14.6458 52.8958 14.1354 53.9479 13.4688 55.0312C12.8229 56.1146 12.3438 56.9583 12.0312 57.5625C11.7396 58.1458 11.5104 58.6667 11.3438 59.125C11.0729 59.875 10.9375 60.5833 10.9375 61.25C10.9375 61.8958 11.0417 62.4375 11.25 62.875C11.4583 63.2917 11.7396 63.6458 12.0938 63.9375C12.8438 64.5833 13.7708 64.9271 14.875 64.9688C16.0208 64.3646 16.8958 63.6146 17.5 62.7188C17.8542 62.8021 18.1458 62.9792 18.375 63.25C18.625 63.5417 18.75 63.9688 18.75 64.5312C18.75 65.1146 18.5417 65.6875 18.125 66.25C18.9375 66.6875 19.3438 67.5104 19.3438 68.7188C19.3438 68.8646 19.3438 69.0104 19.3438 69.1562C19.3438 69.3021 19.3229 69.4479 19.2812 69.5938C18.3646 69.9271 17.6146 70.0938 17.0312 70.0938C16.4479 70.0938 15.8854 70.0208 15.3438 69.875ZM13.8438 18.9062L14.1875 19L13.8438 18.9062ZM13.8438 65.3438L14.1875 65.25L13.8438 65.3438Z" fill="black"/>
<path d="M353.469 69.875C352.927 70.0208 352.365 70.0938 351.781 70.0938C351.198 70.0938 350.448 69.9271 349.531 69.5938C349.49 69.4479 349.469 69.3021 349.469 69.1562C349.469 69.0104 349.469 68.8646 349.469 68.7188C349.469 67.5104 349.875 66.6875 350.688 66.25C350.271 65.6875 350.062 65.1146 350.062 64.5312C350.062 63.9688 350.177 63.5417 350.406 63.25C350.656 62.9792 350.958 62.8021 351.312 62.7188C351.917 63.6146 352.792 64.3646 353.938 64.9688C355.042 64.9271 355.969 64.5833 356.719 63.9375C357.073 63.6458 357.354 63.2917 357.562 62.875C357.771 62.4375 357.875 61.8958 357.875 61.25C357.875 60.5833 357.74 59.875 357.469 59.125C357.302 58.6667 357.062 58.1458 356.75 57.5625C356.458 56.9583 355.979 56.1146 355.312 55.0312C354.667 53.9479 354.167 52.8958 353.812 51.875C353.646 51.375 353.521 50.875 353.438 50.375C353.375 49.8542 353.344 49.3021 353.344 48.7188C353.344 48.1146 353.448 47.4792 353.656 46.8125C354.385 44.5208 355.938 42.9583 358.312 42.125C356.729 41.6042 355.479 40.6771 354.562 39.3438C354.167 38.7396 353.865 38.1042 353.656 37.4375C353.448 36.7708 353.344 35.9896 353.344 35.0938C353.344 34.1979 353.5 33.2917 353.812 32.375C354 31.8542 354.229 31.3125 354.5 30.75C354.792 30.1667 355.271 29.3125 355.938 28.1875C356.625 27.0625 357.135 26.0417 357.469 25.125C357.635 24.6667 357.74 24.2604 357.781 23.9062C357.844 23.5521 357.875 23.1562 357.875 22.7188C357.875 22.2604 357.771 21.8125 357.562 21.375C356.938 20.125 355.729 19.4271 353.938 19.2812C352.792 19.8854 351.917 20.6354 351.312 21.5312C350.479 21.3438 350.062 20.7396 350.062 19.7188C350.062 19.1354 350.271 18.5625 350.688 18C349.875 17.5625 349.469 16.7396 349.469 15.5312C349.469 15.3854 349.469 15.2396 349.469 15.0938C349.469 14.9479 349.49 14.8021 349.531 14.6562C350.448 14.3229 351.281 14.1562 352.031 14.1562C352.448 14.1562 352.927 14.2292 353.469 14.375C354.115 13.4583 354.833 13 355.625 13C356.438 13 357.042 13.1562 357.438 13.4688C356.75 14.3646 356.365 15.3333 356.281 16.375C358.531 16.9167 360.25 17.8438 361.438 19.1562C362.646 20.4479 363.25 21.9792 363.25 23.75C363.25 24.75 363.021 26 362.562 27.5C361.729 30.2708 361.312 32.7812 361.312 35.0312C361.312 38.4271 362.854 40.6771 365.938 41.7812C366.188 41.8854 366.312 42 366.312 42.125C366.312 42.25 366.188 42.3646 365.938 42.4688C364.438 43.0104 363.292 43.8333 362.5 44.9375C361.708 46.0208 361.312 47.5729 361.312 49.5938C361.312 51.5938 361.812 54.2396 362.812 57.5312C363.104 58.5104 363.25 59.5 363.25 60.5C363.25 62.3333 362.635 63.8854 361.406 65.1562C360.198 66.4271 358.49 67.3333 356.281 67.875C356.365 68.9792 356.75 69.9479 357.438 70.7812C357.042 71.0938 356.531 71.25 355.906 71.25C354.927 71.25 354.115 70.7917 353.469 69.875ZM354.969 18.9062L354.625 19L354.969 18.9062ZM354.969 65.3438L354.625 65.25L354.969 65.3438Z" fill="black"/>
<line x1="28" y1="76" x2="341" y2="76" stroke="#3A160E" stroke-width="4"/>
</svg>
