<svg width="61" height="67" viewBox="0 0 61 67" fill="none" xmlns="http://www.w3.org/2000/svg">
<path d="M11 50H46L43.5 63.4737L29.125 66L12.875 64.3158L11 50Z" fill="#F40093"/>
<path d="M10.5 35L47.5 27.5L46 50H11.5L10.5 35Z" fill="#00F0FF"/>
<path d="M19.916 1.63062L26.2211 2.26112L26.8516 4.78316H19.916V1.63062Z" fill="#1D1409"/>
<path d="M34.4163 2.89149L38.1994 2.26099H41.9824L43.8739 8.56607L44.5044 15.5017L43.8739 21.1762L38.8299 24.3288L27.4807 24.9593L20.5451 22.4373L17.3926 19.2847V16.1322L18.0231 14.2406L19.9146 6.04404L26.8502 4.78302L34.4163 2.89149Z" fill="#3E2D19"/>
<path d="M3.52203 19.9153L15.5017 15.5017L19.9153 23.6983L35.678 24.9593L43.8746 21.8068L45.7661 19.2848H47.0271L50.1797 20.5458L55.2237 23.6983L58.3763 28.1119L48.2881 27.4814L36.939 31.2644L23.0678 35.0475H9.19661L1 26.8509L3.52203 19.9153Z" fill="#7C603E"/>
<path d="M46.7749 41.1533H25.2891C24.7368 41.1533 24.2891 41.601 24.2891 42.1533V53.8054C24.2891 54.3577 24.7368 54.8054 25.2891 54.8054H45.1688" stroke="black" stroke-width="2" stroke-linecap="round"/>
<path d="M31.5156 49.9868C32.1581 49.9868 37.4048 49.9868 39.9478 49.9868" stroke="black" stroke-width="2" stroke-linecap="round"/>
<path d="M28.3047 45.9717C29.406 45.9717 38.4004 45.9717 42.7599 45.9717" stroke="black" stroke-width="2" stroke-linecap="round"/>
<path d="M47.9796 28.3044L44.8176 62.0332C44.0145 67.6547 15.0539 66.4501 13.4478 63.6394C11.0162 59.3841 10.6355 46.3734 9.83398 35.1305" stroke="black" stroke-width="2"/>
<path d="M27.0881 2.77366C24.8128 1.43521 20.0212 -0.438607 19.0575 2.77366C17.8529 6.78899 26.2851 5.98583 29.8989 3.97817C33.5127 1.9705 39.9365 1.16736 41.1411 1.97051C42.3457 2.77367 46.9402 19.5815 43.5499 22.0472C39.133 25.2594 13.8364 28.8732 16.6476 14.8196C6.4753 16.6934 -7.84123 24.8579 8.21636 34.0931C12.2351 36.4044 22.2686 37.941 43.5499 28.3042C47.1637 26.9322 54.8054 27.9027 58.0051 28.8732C61.4419 29.9157 55.5959 18.8349 47.1637 20.0395" stroke="black" stroke-width="2"/>
</svg>
