<svg width="190" height="188" viewBox="0 0 190 188" fill="none" xmlns="http://www.w3.org/2000/svg">
<path fill-rule="evenodd" clip-rule="evenodd" d="M178 62.5C178 90.3904 155.39 113 127.5 113C99.6096 113 77 90.3904 77 62.5C77 34.6096 99.6096 12 127.5 12C155.39 12 178 34.6096 178 62.5ZM190 62.5C190 97.0178 162.018 125 127.5 125C112.019 125 97.8528 119.372 86.9358 110.049L9.24264 187.743L0.75736 179.257L78.5944 101.42C70.0853 90.7423 65 77.215 65 62.5C65 27.9822 92.9822 0 127.5 0C162.018 0 190 27.9822 190 62.5Z" fill="black"/>
</svg>
